<?xml version="1.0" standalone="yes"?>
<!-- SVG graphic -->
<svg xmlns='http://www.w3.org/2000/svg' xmlns:xlink='http://www.w3.org/1999/xlink'
 version="1.1">
<rect x="0" y="0" width="6" height="200" stroke="black" stroke-width="1" fill="blue" tooltip="enable"><title>(0,330538)</title></rect><rect x="6" y="90.887" width="6" height="109.113" stroke="black" stroke-width="1" fill="blue" tooltip="enable"><title>(0.0359691,180330)</title></rect><rect x="12" y="117.197" width="6" height="82.8032" stroke="black" stroke-width="1" fill="blue" tooltip="enable"><title>(0.0719382,136848)</title></rect><rect x="18" y="133.047" width="6" height="66.9527" stroke="black" stroke-width="1" fill="blue" tooltip="enable"><title>(0.107907,110652)</title></rect><rect x="24" y="145.643" width="6" height="54.3574" stroke="black" stroke-width="1" fill="blue" tooltip="enable"><title>(0.143876,89836)</title></rect><rect x="30" y="155.39" width="6" height="44.6103" stroke="black" stroke-width="1" fill="blue" tooltip="enable"><title>(0.179845,73727)</title></rect><rect x="36" y="163.448" width="6" height="36.5519" stroke="black" stroke-width="1" fill="blue" tooltip="enable"><title>(0.215815,60409)</title></rect><rect x="42" y="170.324" width="6" height="29.6759" stroke="black" stroke-width="1" fill="blue" tooltip="enable"><title>(0.251784,49045)</title></rect><rect x="48" y="175.81" width="6" height="24.1897" stroke="black" stroke-width="1" fill="blue" tooltip="enable"><title>(0.287753,39978)</title></rect><rect x="54" y="180.141" width="6" height="19.8585" stroke="black" stroke-width="1" fill="blue" tooltip="enable"><title>(0.323722,32820)</title></rect><rect x="60" y="183.869" width="6" height="16.1313" stroke="black" stroke-width="1" fill="blue" tooltip="enable"><title>(0.359691,26660)</title></rect><rect x="66" y="186.789" width="6" height="13.2112" stroke="black" stroke-width="1" fill="blue" tooltip="enable"><title>(0.39566,21834)</title></rect><rect x="72" y="189.08" width="6" height="10.9198" stroke="black" stroke-width="1" fill="blue" tooltip="enable"><title>(0.431629,18047)</title></rect><rect x="78" y="191.121" width="6" height="8.87946" stroke="black" stroke-width="1" fill="blue" tooltip="enable"><title>(0.467598,14675)</title></rect><rect x="84" y="192.585" width="6" height="7.41518" stroke="black" stroke-width="1" fill="blue" tooltip="enable"><title>(0.503567,12255)</title></rect><rect x="90" y="193.848" width="6" height="6.15239" stroke="black" stroke-width="1" fill="blue" tooltip="enable"><title>(0.539536,10168)</title></rect><rect x="96" y="194.962" width="6" height="5.03785" stroke="black" stroke-width="1" fill="blue" tooltip="enable"><title>(0.575506,8326)</title></rect><rect x="102" y="195.768" width="6" height="4.23249" stroke="black" stroke-width="1" fill="blue" tooltip="enable"><title>(0.611475,6995)</title></rect><rect x="108" y="196.37" width="6" height="3.63045" stroke="black" stroke-width="1" fill="blue" tooltip="enable"><title>(0.647444,6000)</title></rect><rect x="114" y="197.03" width="6" height="2.97031" stroke="black" stroke-width="1" fill="blue" tooltip="enable"><title>(0.683413,4909)</title></rect><rect x="120" y="197.461" width="6" height="2.53889" stroke="black" stroke-width="1" fill="blue" tooltip="enable"><title>(0.719382,4196)</title></rect><rect x="126" y="197.84" width="6" height="2.15951" stroke="black" stroke-width="1" fill="blue" tooltip="enable"><title>(0.755351,3569)</title></rect><rect x="132" y="198.112" width="6" height="1.88844" stroke="black" stroke-width="1" fill="blue" tooltip="enable"><title>(0.79132,3121)</title></rect><rect x="138" y="198.368" width="6" height="1.63249" stroke="black" stroke-width="1" fill="blue" tooltip="enable"><title>(0.827289,2698)</title></rect><rect x="144" y="198.577" width="6" height="1.42253" stroke="black" stroke-width="1" fill="blue" tooltip="enable"><title>(0.863258,2351)</title></rect><rect x="150" y="198.796" width="6" height="1.2041" stroke="black" stroke-width="1" fill="blue" tooltip="enable"><title>(0.899227,1990)</title></rect><rect x="156" y="199.017" width="6" height="0.98264" stroke="black" stroke-width="1" fill="blue" tooltip="enable"><title>(0.935197,1624)</title></rect><rect x="162" y="199.086" width="6" height="0.913662" stroke="black" stroke-width="1" fill="blue" tooltip="enable"><title>(0.971166,1510)</title></rect><rect x="168" y="199.189" width="6" height="0.811404" stroke="black" stroke-width="1" fill="blue" tooltip="enable"><title>(1.00713,1341)</title></rect><rect x="174" y="199.281" width="6" height="0.718828" stroke="black" stroke-width="1" fill="blue" tooltip="enable"><title>(1.0431,1188)</title></rect><rect x="180" y="199.39" width="6" height="0.609915" stroke="black" stroke-width="1" fill="blue" tooltip="enable"><title>(1.07907,1008)</title></rect><rect x="186" y="199.458" width="6" height="0.542146" stroke="black" stroke-width="1" fill="blue" tooltip="enable"><title>(1.11504,896)</title></rect><rect x="192" y="199.53" width="6" height="0.470143" stroke="black" stroke-width="1" fill="blue" tooltip="enable"><title>(1.15101,777)</title></rect><rect x="198" y="199.611" width="6" height="0.389063" stroke="black" stroke-width="1" fill="blue" tooltip="enable"><title>(1.18698,643)</title></rect><rect x="204" y="199.622" width="6" height="0.378171" stroke="black" stroke-width="1" fill="blue" tooltip="enable"><title>(1.22295,625)</title></rect><rect x="210" y="199.684" width="6" height="0.316454" stroke="black" stroke-width="1" fill="blue" tooltip="enable"><title>(1.25892,523)</title></rect><rect x="216" y="199.729" width="6" height="0.271073" stroke="black" stroke-width="1" fill="blue" tooltip="enable"><title>(1.29489,448)</title></rect><rect x="222" y="199.741" width="6" height="0.258972" stroke="black" stroke-width="1" fill="blue" tooltip="enable"><title>(1.33086,428)</title></rect><rect x="228" y="199.788" width="6" height="0.212381" stroke="black" stroke-width="1" fill="blue" tooltip="enable"><title>(1.36683,351)</title></rect><rect x="234" y="199.804" width="6" height="0.196044" stroke="black" stroke-width="1" fill="blue" tooltip="enable"><title>(1.40279,324)</title></rect><rect x="240" y="199.823" width="6" height="0.177287" stroke="black" stroke-width="1" fill="blue" tooltip="enable"><title>(1.43876,293)</title></rect><rect x="246" y="199.86" width="6" height="0.139772" stroke="black" stroke-width="1" fill="blue" tooltip="enable"><title>(1.47473,231)</title></rect><rect x="252" y="199.871" width="6" height="0.129486" stroke="black" stroke-width="1" fill="blue" tooltip="enable"><title>(1.5107,214)</title></rect><rect x="258" y="199.878" width="6" height="0.122225" stroke="black" stroke-width="1" fill="blue" tooltip="enable"><title>(1.54667,202)</title></rect><rect x="264" y="199.89" width="6" height="0.109518" stroke="black" stroke-width="1" fill="blue" tooltip="enable"><title>(1.58264,181)</title></rect><rect x="270" y="199.897" width="6" height="0.103468" stroke="black" stroke-width="1" fill="blue" tooltip="enable"><title>(1.61861,171)</title></rect><rect x="276" y="199.915" width="6" height="0.0853155" stroke="black" stroke-width="1" fill="blue" tooltip="enable"><title>(1.65458,141)</title></rect><rect x="282" y="199.915" width="6" height="0.0847104" stroke="black" stroke-width="1" fill="blue" tooltip="enable"><title>(1.69055,140)</title></rect><rect x="288" y="199.929" width="6" height="0.0713987" stroke="black" stroke-width="1" fill="blue" tooltip="enable"><title>(1.72652,118)</title></rect><rect x="294" y="199.94" width="6" height="0.0599023" stroke="black" stroke-width="1" fill="blue" tooltip="enable"><title>(1.76249,99)</title></rect><rect x="300" y="199.936" width="6" height="0.0641379" stroke="black" stroke-width="1" fill="blue" tooltip="enable"><title>(1.79845,106)</title></rect><rect x="306" y="199.935" width="6" height="0.0647429" stroke="black" stroke-width="1" fill="blue" tooltip="enable"><title>(1.83442,107)</title></rect><rect x="312" y="199.953" width="6" height="0.0471958" stroke="black" stroke-width="1" fill="blue" tooltip="enable"><title>(1.87039,78)</title></rect><rect x="318" y="199.958" width="6" height="0.0417501" stroke="black" stroke-width="1" fill="blue" tooltip="enable"><title>(1.90636,69)</title></rect><rect x="324" y="199.961" width="6" height="0.0387247" stroke="black" stroke-width="1" fill="blue" tooltip="enable"><title>(1.94233,64)</title></rect><rect x="330" y="199.965" width="6" height="0.0350943" stroke="black" stroke-width="1" fill="blue" tooltip="enable"><title>(1.9783,58)</title></rect><rect x="336" y="199.976" width="6" height="0.024203" stroke="black" stroke-width="1" fill="blue" tooltip="enable"><title>(2.01427,40)</title></rect><rect x="342" y="199.962" width="6" height="0.0381197" stroke="black" stroke-width="1" fill="blue" tooltip="enable"><title>(2.05024,63)</title></rect><rect x="348" y="199.979" width="6" height="0.0205725" stroke="black" stroke-width="1" fill="blue" tooltip="enable"><title>(2.08621,34)</title></rect><rect x="354" y="199.975" width="6" height="0.0254131" stroke="black" stroke-width="1" fill="blue" tooltip="enable"><title>(2.12218,42)</title></rect><rect x="360" y="199.978" width="6" height="0.0223877" stroke="black" stroke-width="1" fill="blue" tooltip="enable"><title>(2.15815,37)</title></rect><rect x="366" y="199.982" width="6" height="0.0181522" stroke="black" stroke-width="1" fill="blue" tooltip="enable"><title>(2.19411,30)</title></rect><rect x="372" y="199.98" width="6" height="0.0199674" stroke="black" stroke-width="1" fill="blue" tooltip="enable"><title>(2.23008,33)</title></rect><rect x="378" y="199.985" width="6" height="0.0151269" stroke="black" stroke-width="1" fill="blue" tooltip="enable"><title>(2.26605,25)</title></rect><rect x="384" y="199.982" width="6" height="0.0181522" stroke="black" stroke-width="1" fill="blue" tooltip="enable"><title>(2.30202,30)</title></rect><rect x="390" y="199.992" width="6" height="0.00847104" stroke="black" stroke-width="1" fill="blue" tooltip="enable"><title>(2.33799,14)</title></rect><rect x="396" y="199.988" width="6" height="0.0121015" stroke="black" stroke-width="1" fill="blue" tooltip="enable"><title>(2.37396,20)</title></rect><rect x="402" y="199.994" width="6" height="0.00605074" stroke="black" stroke-width="1" fill="blue" tooltip="enable"><title>(2.40993,10)</title></rect><rect x="408" y="199.994" width="6" height="0.00605074" stroke="black" stroke-width="1" fill="blue" tooltip="enable"><title>(2.4459,10)</title></rect><rect x="414" y="199.994" width="6" height="0.00605074" stroke="black" stroke-width="1" fill="blue" tooltip="enable"><title>(2.48187,10)</title></rect><rect x="420" y="199.998" width="6" height="0.0024203" stroke="black" stroke-width="1" fill="blue" tooltip="enable"><title>(2.51784,4)</title></rect><rect x="426" y="199.995" width="6" height="0.00544567" stroke="black" stroke-width="1" fill="blue" tooltip="enable"><title>(2.55381,9)</title></rect><rect x="432" y="199.987" width="6" height="0.0127066" stroke="black" stroke-width="1" fill="blue" tooltip="enable"><title>(2.58978,21)</title></rect><rect x="438" y="199.992" width="6" height="0.00786596" stroke="black" stroke-width="1" fill="blue" tooltip="enable"><title>(2.62574,13)</title></rect><rect x="444" y="199.996" width="6" height="0.00363044" stroke="black" stroke-width="1" fill="blue" tooltip="enable"><title>(2.66171,6)</title></rect><rect x="450" y="199.997" width="6" height="0.00302537" stroke="black" stroke-width="1" fill="blue" tooltip="enable"><title>(2.69768,5)</title></rect><rect x="456" y="199.995" width="6" height="0.00544567" stroke="black" stroke-width="1" fill="blue" tooltip="enable"><title>(2.73365,9)</title></rect><rect x="462" y="199.998" width="6" height="0.0024203" stroke="black" stroke-width="1" fill="blue" tooltip="enable"><title>(2.76962,4)</title></rect><rect x="468" y="199.998" width="6" height="0.0024203" stroke="black" stroke-width="1" fill="blue" tooltip="enable"><title>(2.80559,4)</title></rect><rect x="474" y="199.998" width="6" height="0.00181522" stroke="black" stroke-width="1" fill="blue" tooltip="enable"><title>(2.84156,3)</title></rect><rect x="480" y="199.996" width="6" height="0.00363044" stroke="black" stroke-width="1" fill="blue" tooltip="enable"><title>(2.87753,6)</title></rect><rect x="486" y="199.998" width="6" height="0.00181522" stroke="black" stroke-width="1" fill="blue" tooltip="enable"><title>(2.9135,3)</title></rect><rect x="492" y="199.999" width="6" height="0.000605074" stroke="black" stroke-width="1" fill="blue" tooltip="enable"><title>(2.94947,1)</title></rect><rect x="498" y="199.998" width="6" height="0.0024203" stroke="black" stroke-width="1" fill="blue" tooltip="enable"><title>(2.98544,4)</title></rect><rect x="504" y="199.999" width="6" height="0.000605074" stroke="black" stroke-width="1" fill="blue" tooltip="enable"><title>(3.0214,1)</title></rect><rect x="510" y="199.997" width="6" height="0.00302537" stroke="black" stroke-width="1" fill="blue" tooltip="enable"><title>(3.05737,5)</title></rect><rect x="516" y="199.999" width="6" height="0.000605074" stroke="black" stroke-width="1" fill="blue" tooltip="enable"><title>(3.09334,1)</title></rect><rect x="522" y="199.998" width="6" height="0.00181522" stroke="black" stroke-width="1" fill="blue" tooltip="enable"><title>(3.12931,3)</title></rect><rect x="528" y="200" width="6" height="0" stroke="black" stroke-width="1" fill="blue" tooltip="enable"><title>(3.16528,0)</title></rect><rect x="534" y="199.999" width="6" height="0.000605074" stroke="black" stroke-width="1" fill="blue" tooltip="enable"><title>(3.20125,1)</title></rect><rect x="540" y="200" width="6" height="0" stroke="black" stroke-width="1" fill="blue" tooltip="enable"><title>(3.23722,0)</title></rect><rect x="546" y="199.999" width="6" height="0.000605074" stroke="black" stroke-width="1" fill="blue" tooltip="enable"><title>(3.27319,1)</title></rect><rect x="552" y="200" width="6" height="0" stroke="black" stroke-width="1" fill="blue" tooltip="enable"><title>(3.30916,0)</title></rect><rect x="558" y="200" width="6" height="0" stroke="black" stroke-width="1" fill="blue" tooltip="enable"><title>(3.34513,0)</title></rect><rect x="564" y="200" width="6" height="0" stroke="black" stroke-width="1" fill="blue" tooltip="enable"><title>(3.3811,0)</title></rect><rect x="570" y="200" width="6" height="0" stroke="black" stroke-width="1" fill="blue" tooltip="enable"><title>(3.41706,0)</title></rect><rect x="576" y="199.999" width="6" height="0.000605074" stroke="black" stroke-width="1" fill="blue" tooltip="enable"><title>(3.45303,1)</title></rect><rect x="582" y="199.999" width="6" height="0.00121015" stroke="black" stroke-width="1" fill="blue" tooltip="enable"><title>(3.489,2)</title></rect><rect x="588" y="199.999" width="6" height="0.000605074" stroke="black" stroke-width="1" fill="blue" tooltip="enable"><title>(3.52497,1)</title></rect><rect x="594" y="200" width="6" height="0" stroke="black" stroke-width="1" fill="blue" tooltip="enable"><title>(3.56094,0)</title></rect><text x="30" y="240" font-size="20" fill="black">0</text>
<text x="600" y="240" font-size="20" fill="black">3.59691</text>
<polyline points="0,220,600,220" stroke="black" stroke-width="1" fill="none"/>
<text x="720" y="20" font-size="20" fill="black">330538</text>
<text x="720" y="200" font-size="20" fill="black">0</text>
<polyline points="660,0,660,200" stroke="black" stroke-width="1" fill="none"/>
</svg>